HIERARCHY
ROOT SpineBase
{
  OFFSET 0.000000 0.000000 0.000000
  CHANNELS 6 Xposition Yposition Zposition Zrotation Xrotation Yrotation
  JOINT SpineMid
  {
    OFFSET -0.000000 32.621813 0.000000
    CHANNELS 3 Zrotation Xrotation Yrotation
    JOINT SpineShoulder
    {
      OFFSET -0.200386 24.072967 -0.789766
      CHANNELS 3 Zrotation Xrotation Yrotation
      JOINT Neck
      {
        OFFSET -0.117431 7.927731 -0.597006
        CHANNELS 3 Zrotation Xrotation Yrotation
        JOINT Head
        {
          OFFSET -6.889106 10.772512 5.019165
          CHANNELS 3 Zrotation Xrotation Yrotation
          End Site
          {
            OFFSET 0 0 0
          }
        }
      }
      JOINT ShoulderLeft
      {
        OFFSET -13.083944 -12.897242 -20.460252
        CHANNELS 3 Zrotation Xrotation Yrotation
        JOINT ElbowLeft
        {
          OFFSET 1.012435 -28.492053 8.725218
          CHANNELS 3 Zrotation Xrotation Yrotation
          JOINT WristLeft
          {
            OFFSET -3.215765 -23.181007 6.293379
            CHANNELS 3 Zrotation Xrotation Yrotation
            JOINT HandLeft
            {
              OFFSET 0.071080 -5.861445 -1.477393
              CHANNELS 3 Zrotation Xrotation Yrotation
              JOINT HandTipLeft
              {
                OFFSET 0.037640 -11.248227 6.086387
                CHANNELS 3 Zrotation Xrotation Yrotation
                End Site
                {
                  OFFSET 0 0 0
                }
              }
              JOINT ThumbLeft
              {
                OFFSET -5.629686 3.029579 -1.066036
                CHANNELS 3 Zrotation Xrotation Yrotation
                End Site
                {
                  OFFSET 0 0 0
                }
              }
            }
          }
        }
      }
      JOINT ShoulderRight
      {
        OFFSET 1.504431 -7.224534 -11.703892
        CHANNELS 3 Zrotation Xrotation Yrotation
        JOINT ElbowRight
        {
          OFFSET -9.026386 -26.212843 -4.038743
          CHANNELS 3 Zrotation Xrotation Yrotation
          JOINT WristRight
          {
            OFFSET -7.289315 -27.253355 5.363851
            CHANNELS 3 Zrotation Xrotation Yrotation
            JOINT HandRight
            {
              OFFSET 0.109743 -5.095626 1.650631
              CHANNELS 3 Zrotation Xrotation Yrotation
              JOINT HandTipRight
              {
                OFFSET -1.315896 -7.785982 2.586284
                CHANNELS 3 Zrotation Xrotation Yrotation
                End Site
                {
                  OFFSET 0 0 0
                }
              }
              JOINT ThumbRight
              {
                OFFSET -5.773298 -0.635700 0.579420
                CHANNELS 3 Zrotation Xrotation Yrotation
                End Site
                {
                  OFFSET 0 0 0
                }
              }
            }
          }
        }
      }
    }
  }
  JOINT HipLeft
  {
    OFFSET -5.359499 1.355947 -0.968587
    CHANNELS 3 Zrotation Xrotation Yrotation
    JOINT KneeLeft
    {
      OFFSET 13.328286 -44.208464 13.370427
      CHANNELS 3 Zrotation Xrotation Yrotation
      JOINT AnkleLeft
      {
        OFFSET 4.772083 -34.368254 1.366871
        CHANNELS 3 Zrotation Xrotation Yrotation
        JOINT FootLeft
        {
          OFFSET -5.797919 -5.571863 -7.386910
          CHANNELS 3 Zrotation Xrotation Yrotation
          End Site
          {
            OFFSET 0 0 0
          }
        }
      }
    }
  }
  JOINT HipRight
  {
    OFFSET 4.241359 0.776683 -6.362685
    CHANNELS 3 Zrotation Xrotation Yrotation
    JOINT KneeRight
    {
      OFFSET -10.977485 -43.286351 7.921829
      CHANNELS 3 Zrotation Xrotation Yrotation
      JOINT AnkleRight
      {
        OFFSET 4.875985 -34.484097 -0.865008
        CHANNELS 3 Zrotation Xrotation Yrotation
        JOINT FootRight
        {
          OFFSET -3.904915 -7.495418 3.691225
          CHANNELS 3 Zrotation Xrotation Yrotation
          End Site
          {
            OFFSET 0 0 0
          }
        }
      }
    }
  }
}
MOTION
Frames: 6
Frame Time: 0.033333
37.816493 87.532491 285.509952 0.000000 0.000000 29.328802 -0.000000 0.000000 -29.328802 -0.000000 0.000000 0.000000 -0.000000 0.000000 0.000000 0.000000 0.000000 0.000000 -0.000000 0.000000 0.000000 -0.000000 0.000000 0.000000 -0.000000 0.000000 0.000000 -0.000000 0.000000 0.000000 0.000000 0.000000 0.000000 0.000000 0.000000 0.000000 -0.000000 0.000000 0.000000 -0.000000 0.000000 0.000000 -0.000000 0.000000 0.000000 -0.000000 0.000000 0.000000 0.000000 0.000000 0.000000 0.000000 0.000000 0.000000 -0.000000 0.000000 -29.328802 -0.000000 0.000000 0.000000 -0.000000 0.000000 0.000000 0.000000 0.000000 0.000000 -0.000000 0.000000 -29.328802 -0.000000 0.000000 0.000000 -0.000000 0.000000 0.000000 0.000000 0.000000 0.000000
37.889364 87.675192 285.585773 0.029903 0.015653 29.021458 -0.033742 0.000819 -29.021462 -0.000000 0.000000 0.000000 -0.000000 0.000000 0.000000 0.000000 0.000000 0.000000 -0.000000 0.000000 0.000000 -0.000000 0.000000 0.000000 -0.000000 0.000000 0.000000 -0.103806 1.033870 -0.052027 0.000000 0.000000 0.000000 0.000000 0.000000 0.000000 -0.000000 0.000000 0.000000 -0.000000 0.000000 0.000000 -0.000000 0.000000 0.000000 -1.570369 0.335725 -0.573030 0.000000 0.000000 0.000000 0.000000 0.000000 0.000000 -0.033742 0.000819 -29.021462 -0.000000 0.000000 0.000000 6.117188 2.777545 -11.387230 0.000000 0.000000 0.000000 -0.033742 0.000819 -29.021462 -0.000000 0.000000 0.000000 12.638793 17.616954 -5.731904 0.000000 0.000000 0.000000
37.957845 87.784923 285.656723 0.057152 0.030848 28.793080 -0.064944 0.000493 -28.793095 -0.000000 0.000000 0.000000 -0.000000 0.000000 0.000000 0.000000 0.000000 0.000000 -0.000000 0.000000 0.000000 -0.000000 0.000000 0.000000 -0.000000 0.000000 0.000000 -0.199273 1.889728 -0.099101 0.000000 0.000000 0.000000 0.000000 0.000000 0.000000 -0.000000 0.000000 0.000000 -0.000000 0.000000 0.000000 -0.214612 -1.355081 -0.100860 -2.682881 1.986966 -0.886034 0.000000 0.000000 0.000000 0.000000 0.000000 0.000000 0.754567 -0.536162 -28.517428 -2.370241 0.055795 -0.329343 13.235080 4.176152 -21.491769 0.000000 0.000000 0.000000 -0.064944 0.000493 -28.793095 -0.000000 0.000000 0.000000 31.204650 34.869075 -18.468778 0.000000 0.000000 0.000000
38.021935 87.861683 285.722802 0.081685 0.045557 28.641390 -0.093527 -0.000829 -28.641424 -0.000000 0.000000 0.000000 -0.000000 0.000000 0.000000 0.000000 0.000000 0.000000 -0.000000 0.000000 0.000000 -0.000000 0.000000 0.000000 -0.000000 0.000000 0.000000 -0.285120 2.547097 -0.141113 0.000000 0.000000 0.000000 0.000000 0.000000 0.000000 -0.000000 0.000000 0.000000 -0.000000 0.000000 0.000000 -0.316091 -1.776046 -0.144826 -3.645524 2.660445 -1.171647 0.000000 0.000000 0.000000 0.000000 0.000000 0.000000 0.937717 -0.660740 -28.292851 -2.992793 0.090883 -0.411083 18.268307 4.470717 -29.564981 0.000000 0.000000 0.000000 -0.093527 -0.000829 -28.641424 0.032300 0.914307 0.128185 49.755011 43.526777 -33.400348 0.000000 0.000000 0.000000
38.081635 87.905472 285.784011 0.103450 0.059752 28.564670 -0.119428 -0.003014 -28.564727 -0.000000 0.000000 0.000000 -0.000000 0.000000 0.000000 0.000000 0.000000 0.000000 -0.000000 0.000000 0.000000 -0.000000 0.000000 0.000000 -0.000000 0.000000 0.000000 -0.360195 2.989564 -0.178011 0.000000 0.000000 0.000000 0.000000 0.000000 0.000000 -0.000000 0.000000 0.000000 -0.000000 0.000000 0.000000 -0.412646 -2.026407 -0.183576 -4.337949 3.111544 -1.371930 0.000000 0.000000 0.000000 0.000000 0.000000 0.000000 0.984825 -0.690327 -28.189486 -3.250762 0.126161 -0.437768 21.889499 4.199720 -35.489758 0.000000 0.000000 0.000000 -0.119428 -0.003014 -28.564727 0.102619 0.958085 0.131998 62.022597 46.795356 -44.432159 0.000000 0.000000 0.000000
38.136945 87.916290 285.840349 0.122402 0.073408 28.561724 -0.142603 -0.005953 -28.561810 -0.000000 0.000000 0.000000 -0.000000 0.000000 0.000000 0.000000 0.000000 0.000000 -0.000000 0.000000 0.000000 -0.000000 0.000000 0.000000 -0.000000 0.000000 0.000000 -0.423524 3.205499 -0.209767 0.000000 0.000000 0.000000 0.000000 0.000000 0.000000 -0.000000 0.000000 0.000000 -0.000000 0.000000 0.000000 -0.503645 -2.108976 -0.216572 -4.750102 3.338378 -1.496256 0.000000 0.000000 0.000000 0.000000 0.000000 0.000000 0.894661 -0.625494 -28.206678 -3.147773 0.161134 -0.409517 24.245632 3.719002 -39.548350 0.000000 0.000000 0.000000 -0.142603 -0.005953 -28.561810 0.203279 0.863262 0.115385 66.549398 47.780616 -49.359322 0.000000 0.000000 0.000000
